<svg width="694" height="747" viewBox="0 0 694 747" fill="none" xmlns="http://www.w3.org/2000/svg">
<path fill-rule="evenodd" clip-rule="evenodd" d="M203.787 70.156C154.917 124.172 151.984 132.255 121.541 202.041C111.484 192.291 101.396 179.177 93.2493 161.62C93.2493 161.62 98.2701 189.647 118.176 209.516C64.6653 323.391 -18.3707 249.683 46.9733 326.756C40.1452 364.303 4.71863 369.559 39.1973 385.073C-10.9387 402.767 31.0514 415.652 28.8276 427.844C26.2442 442.095 3.70755 448.12 0.32222 479.683C-3.07885 511.24 116.453 525.88 154.536 545.776C227.082 583.677 244.765 664.547 215.437 740.163C201.098 777.141 441.144 657.231 224.515 357.869C139.952 246.156 204.671 69.6693 203.775 70.1627L203.787 70.156ZM470.293 205.476C360.195 176.44 421.725 135.84 392.752 91.9813C392.752 91.9813 474.632 115.127 476.023 192.476C476.023 192.476 448.575 149.831 452.673 159.476C456.772 169.127 470.293 205.476 470.293 205.476ZM489.82 213.596C574.408 289.809 501.117 297.726 506.793 349.996C506.793 349.996 444.591 291.917 478.767 222.522C478.767 222.522 483.647 273.001 484.423 262.549C485.183 252.091 489.814 213.601 489.814 213.601L489.82 213.596ZM510.533 216.179C581.336 176.564 569.897 227.83 606.46 235.971C606.46 235.971 553.028 264.632 514.033 225.679C514.033 225.679 549.216 233.95 542.336 231.039C535.456 228.117 510.539 216.179 510.539 216.179L510.533 216.179ZM489.523 204.023C602.075 186.793 545.173 139.924 578.627 99.3668C578.627 99.3668 494.752 113.736 485.189 190.492C485.189 190.492 516.996 150.992 511.897 160.153C506.804 169.31 489.523 204.017 489.523 204.017V204.023ZM481.392 159.591C446.256 121.684 479.721 121.091 479.283 97.2268C479.283 97.2268 505.032 126.024 486.757 156.003C486.757 156.003 486.606 132.981 485.825 137.675C485.054 142.378 481.387 159.592 481.387 159.592L481.392 159.591ZM596.48 563.564C537.71 443.1 762.894 64.1908 525.986 17.2708L441.122 0.588124C493.887 -1.99001 556.163 4.29639 580.855 12.7444C838.735 100.87 567.439 412.544 596.475 563.571L596.48 563.564ZM347.28 69.1775C263.468 347.084 654.454 479.817 397.108 668.884C553.655 530.097 209.522 322.724 251.575 107.511C163.268 400.337 602.242 531.991 254.247 738.191C294.794 725.998 327.372 712.857 353.2 698.841C786.614 566.596 297.616 323.361 347.284 69.1881L347.28 69.1775Z" fill="#B27BE9"/>
</svg>
