<svg width="234" height="537" viewBox="0 0 234 537" fill="none" xmlns="http://www.w3.org/2000/svg">
<path fill-rule="evenodd" clip-rule="evenodd" d="M169.977 518.506V527.423C169.977 532.335 165.92 536.34 161.06 536.34H72.7576C67.8983 536.34 63.8409 532.335 63.8409 527.423V518.506H169.977ZM8.91028 192.573H21.1082V174.74C21.1082 127.928 54.6815 88.9691 99.0668 80.6144V4.7344C99.0668 2.11466 107.046 0 116.9 0C126.749 0 134.733 2.11453 134.733 4.7344V80.6144C179.119 88.9633 212.692 127.926 212.692 174.74V192.573H224.89C229.786 192.573 233.807 196.578 233.807 201.49C233.807 206.401 229.765 210.406 224.89 210.406H8.91667C4.04173 210.406 0 206.401 0 201.49C0 196.578 4.0208 192.573 8.91667 192.573H8.91028ZM184.004 500.666L212.269 228.226H21.5356L49.8009 500.666H184.014H184.004ZM90.1543 347.133C100.003 347.133 107.988 355.112 107.988 364.966C107.988 374.815 100.008 382.8 90.1543 382.8C80.3054 382.8 72.321 374.821 72.321 364.966C72.321 355.117 80.3002 347.133 90.1543 347.133ZM116.904 400.628C126.753 400.628 134.737 408.607 134.737 418.461C134.737 428.31 126.758 436.294 116.904 436.294C107.055 436.294 99.0703 428.315 99.0703 418.461C99.0703 408.612 107.049 400.628 116.904 400.628ZM143.653 347.133C153.502 347.133 161.486 355.112 161.486 364.966C161.486 374.815 153.507 382.8 143.653 382.8C133.804 382.8 125.82 374.821 125.82 364.966C125.82 355.117 133.799 347.133 143.653 347.133ZM186.361 305.154C185.522 305.764 184.72 306.451 183.96 307.212C169.168 322.004 145.2 322.004 130.413 307.212C122.58 299.378 109.903 299.378 102.069 307.212C87.2772 322.004 63.3092 322.004 48.5225 307.212L47.5694 306.305L65.8761 482.839H167.928L186.36 305.159L186.361 305.154ZM45.3743 285.133C51.1347 286.878 56.567 290.034 61.1236 294.597C68.957 302.43 81.6343 302.43 89.4676 294.597C104.26 279.805 128.228 279.805 143.014 294.597C150.848 302.43 163.525 302.43 171.358 294.597C176.27 289.675 182.207 286.394 188.478 284.748L192.489 246.065H41.3153L45.3727 285.133H45.3743ZM38.9472 192.57H194.867V174.737C194.867 131.674 159.971 96.7784 116.909 96.7784C73.8459 96.7784 38.9499 131.674 38.9499 174.737V192.57H38.9472Z" fill="#785A1F"/>
</svg>
