<svg width="730" height="730" viewBox="0 0 730 730" fill="none" xmlns="http://www.w3.org/2000/svg">
<path d="M536.141 229.902L536.214 230.597L536.414 231.267L562.548 318.745H167.043L193.053 231.257L193.258 230.567L193.328 229.851C194.273 220.21 196.871 212.626 200.878 207.603C204.635 202.894 210.052 199.871 218.385 199.871H511.079C519.319 199.871 524.708 202.879 528.477 207.602C532.497 212.641 535.128 220.245 536.141 229.902Z" fill="white" fill-opacity="0.67" stroke="#D80027" stroke-width="15"/>
<path d="M556.146 348.267H173.333C158.166 348.267 145.917 360.517 145.917 375.683V452.245C145.917 467.412 158.167 479.661 173.333 479.661H556.146C571.313 479.661 583.562 467.411 583.562 452.245V375.537C583.417 360.371 571.166 348.267 556.146 348.267ZM231.52 433.871C220.582 433.871 211.686 425.121 211.686 414.037C211.686 403.1 220.436 394.204 231.52 394.204C242.603 394.204 251.353 402.954 251.353 414.037C251.353 424.975 242.603 433.871 231.52 433.871ZM344.104 434.6C344.104 438.392 341.041 441.454 337.25 441.454C333.458 441.454 330.395 438.391 330.395 434.6V393.621C330.395 389.829 333.458 386.767 337.25 386.767C341.041 386.767 344.104 389.83 344.104 393.621V434.6ZM371.52 434.6C371.52 438.392 368.457 441.454 364.666 441.454C360.874 441.454 357.811 438.391 357.811 434.6V393.621C357.811 389.829 360.874 386.767 364.666 386.767C368.457 386.767 371.52 389.83 371.52 393.621V434.6ZM398.79 434.6C398.79 438.392 395.728 441.454 391.936 441.454C388.145 441.454 385.082 438.391 385.082 434.6V393.621C385.082 389.829 388.145 386.767 391.936 386.767C395.728 386.767 398.79 389.83 398.79 393.621V434.6ZM497.812 433.433C486.874 433.433 477.978 424.683 477.978 413.6C477.978 402.662 486.728 393.767 497.812 393.767C508.749 393.767 517.645 402.517 517.645 413.6C517.499 424.683 508.749 433.433 497.812 433.433Z" fill="#D80027"/>
<path d="M193.747 497.307H262.143V538.285H193.747V497.307Z" fill="black"/>
<path d="M467.187 497.307H535.583V538.285H467.187V497.307Z" fill="black"/>
<path d="M364.667 729.92C267.251 729.92 175.666 692.003 106.826 623.171C37.9865 554.339 0.0771484 462.757 0.0771484 365.331C0.0771484 267.904 37.9945 176.331 106.826 107.491C175.658 38.6506 267.24 0.741318 364.667 0.741318C462.093 0.741318 553.667 38.6586 622.507 107.491C691.347 176.323 729.256 267.904 729.256 365.331C729.256 462.757 691.339 554.331 622.507 623.171C553.675 692.011 462.093 729.92 364.667 729.92ZM364.667 24.08C176.547 24.08 23.4131 177.2 23.4131 365.333C23.4131 553.467 176.533 706.587 364.667 706.587C552.8 706.587 705.92 553.467 705.92 365.333C705.92 177.2 552.8 24.08 364.667 24.08Z" fill="black"/>
</svg>
