<svg width="682" height="482" viewBox="0 0 682 482" fill="none" xmlns="http://www.w3.org/2000/svg">
<path d="M115.933 264.96C120.454 264.96 124.246 261.314 124.246 256.647C124.246 252.127 120.454 248.335 115.933 248.335C111.412 248.335 107.621 251.981 107.621 256.647C107.621 261.314 111.266 264.96 115.933 264.96Z" fill="#A0DADA"/>
<path d="M474.546 103.373C479.067 103.373 482.859 99.7274 482.859 95.0608C482.859 90.54 479.213 86.7482 474.546 86.7482C470.026 86.7482 466.234 90.3941 466.234 95.0608C466.234 99.5816 470.026 103.373 474.546 103.373Z" fill="#A0DADA"/>
<path d="M580.12 260.147L584.349 273.855L588.578 260.147C589.162 258.542 590.328 257.23 592.078 256.647L605.786 252.417L592.078 248.188C590.474 247.605 589.162 246.438 588.578 244.688L584.349 230.98L580.12 244.688C579.537 246.292 578.37 247.605 576.62 248.188L562.912 252.417L576.62 256.647C578.37 257.23 579.683 258.542 580.12 260.147Z" fill="#A0DADA"/>
<path d="M186.52 202.973L190.749 216.681L194.978 202.973C195.562 201.369 196.728 200.057 198.478 199.473L212.186 195.244L198.478 191.015C196.874 190.432 195.562 189.265 194.978 187.515L190.749 173.807L186.52 187.515C185.937 189.119 184.77 190.432 183.02 191.015L169.312 195.244L183.02 199.473C184.77 200.057 186.083 201.223 186.52 202.973Z" fill="#A0DADA"/>
<path d="M676.08 435.293H598.788C617.747 435.293 633.059 419.981 633.059 401.023V369.668C633.059 355.084 622.267 348.523 604.621 339.335C601.85 337.876 598.934 336.418 596.163 334.814L344.896 194.374V194.228C345.188 180.083 346.354 173.083 347.229 169.583C348.542 164.77 350.438 160.687 353.063 157.187C355.834 153.395 362.104 147.27 371.437 138.957C386.604 125.395 396.667 114.312 401.916 104.687C407.312 94.916 410.083 84.1241 410.083 72.6041C410.083 52.6255 402.354 35.5628 387.187 21.5628C371.875 7.70813 351.603 0.70813 326.52 0.70813C302.749 0.70813 283.353 7.27066 268.771 20.2495C254.187 33.0828 245.292 51.8948 242.375 75.9575C242.083 78.8741 244.125 81.4991 246.896 81.7908C249.812 82.0825 252.437 80.0408 252.729 77.27C255.354 55.8327 263.083 39.3527 275.625 28.1247C288.312 16.8955 305.374 11.2073 326.374 11.2073C349.124 11.2073 366.625 17.1865 379.896 29.29C393.021 41.3941 399.437 55.5407 399.437 72.602C399.437 82.3728 397.104 91.414 392.583 99.5807C387.916 107.893 378.437 118.539 364.291 131.081C354.228 139.977 347.665 146.539 344.312 150.914C340.958 155.435 338.479 160.831 336.875 166.81C335.27 172.643 334.395 181.831 334.25 193.935V194.227L85.1696 334.814C82.2529 336.418 79.3362 338.022 76.5654 339.48C59.0654 348.814 48.4201 355.23 48.4201 369.668V401.023C48.4201 419.982 63.7321 435.294 82.6908 435.294H5.25342C2.33675 435.294 0.00341797 437.627 0.00341797 440.544C0.00341797 443.46 2.33675 445.794 5.25342 445.794H676.08C678.997 445.794 681.33 443.46 681.33 440.544C681.33 437.627 678.997 435.293 676.08 435.293ZM402.053 251.987C403.512 249.507 406.72 248.487 409.199 249.945L540.887 323.59C543.366 325.049 544.387 328.257 542.929 330.736C541.908 332.486 540.158 333.361 538.408 333.361C537.533 333.361 536.658 333.215 535.783 332.632L404.095 258.987C401.47 257.674 400.595 254.466 402.053 251.987Z" fill="#A0DADA"/>
<path d="M541.627 471.453H139.707C136.79 471.453 134.457 473.787 134.457 476.703C134.457 479.62 136.79 481.953 139.707 481.953H541.773C544.69 481.953 547.023 479.62 547.023 476.703C547.023 473.787 544.543 471.453 541.627 471.453Z" fill="#A0DADA"/>
</svg>
