<svg width="663" height="499" viewBox="0 0 663 499" fill="none" xmlns="http://www.w3.org/2000/svg">
<path d="M622.867 251.08C622.867 250.335 623.611 248.84 623.611 248.096L634.07 168.2C649.752 163.72 661.695 148.788 661.695 131.612C661.695 110.705 644.523 93.5329 623.616 93.5329C602.71 93.5329 585.538 110.705 585.538 131.612C585.538 145.049 593.007 156.997 603.459 163.716L594.501 229.424C590.766 227.184 586.287 224.944 582.553 223.45C581.808 223.45 581.058 222.705 580.313 222.705C578.818 215.986 576.579 209.267 572.1 203.293C569.115 199.558 566.126 196.574 561.647 193.585V187.611C540.74 79.3452 443.673 0.943878 330.927 0.943878C219.672 0.943878 124.1 79.3452 103.193 187.611C102.448 189.85 102.448 192.09 103.193 194.329C99.4588 196.569 96.4744 199.559 94.2348 203.288C89.7556 209.262 86.766 215.98 86.0212 222.7C85.2764 222.7 84.5264 222.7 83.7816 223.445C78.5524 225.684 72.5838 228.674 68.099 231.658L59.1405 162.965C70.3384 156.246 77.0619 144.298 77.0619 130.861C77.0619 109.954 59.8899 92.7821 38.9832 92.7821C18.0765 92.7821 0.904541 109.954 0.904541 130.861C0.904541 148.033 12.8524 162.965 28.5299 167.449L38.9829 247.345C38.9829 249.584 40.4777 251.824 41.2225 254.064C15.0865 282.438 1.64921 321.261 6.87321 360.834C15.0868 419.818 61.3785 465.365 119.619 472.834C127.087 487.766 142.02 497.474 159.192 497.474C161.431 497.474 162.926 497.474 165.166 496.729C177.114 495.235 186.817 489.261 194.286 479.557C201.005 470.599 204.739 458.651 202.499 447.453L171.885 223.453C169.645 207.771 159.192 195.079 145.005 189.104C165.161 105.479 242.067 44.2508 331.671 44.2508C422.765 44.2508 501.165 105.48 520.578 190.597C506.39 196.571 495.938 209.264 493.698 224.947L463.083 448.2C461.589 460.148 464.578 471.345 471.297 481.055C478.766 490.763 488.469 496.737 500.417 498.227H501.162C503.401 498.227 504.896 498.972 507.136 498.972C524.308 498.972 539.24 489.263 546.709 474.332C606.444 466.863 653.48 421.316 661.693 362.332C666.928 320.514 651.99 279.446 622.871 251.072L622.867 251.08ZM35.2399 357.856C29.2659 315.293 50.9226 273.481 88.2559 253.325L114.387 444.472C72.5745 434.764 41.2146 401.165 35.2412 357.857L35.2399 357.856ZM175.613 452.684C176.358 457.163 174.868 460.898 172.629 464.632C170.389 468.366 165.91 470.606 162.176 470.606H159.936C151.723 470.606 145.004 464.632 144.253 456.418L113.639 232.418C112.894 227.939 114.384 224.204 116.623 220.47C118.863 216.736 123.342 214.496 127.076 214.496H129.316C137.529 214.496 144.248 220.47 144.999 228.684L175.613 452.684ZM504.147 470.601C499.667 469.857 495.188 467.617 492.949 463.883C489.964 460.148 489.214 456.414 489.964 451.935L520.579 228.681C521.324 220.468 528.793 214.493 537.006 214.493H539.245H539.99C544.469 215.238 548.204 217.478 550.443 220.467C553.427 224.202 554.177 227.936 553.427 232.415L522.813 455.669C521.318 465.377 513.105 471.352 504.147 470.601ZM633.319 357.856C627.345 401.163 594.491 435.507 552.679 444.471L579.559 253.324C616.897 273.48 639.293 315.293 633.319 357.855V357.856Z" fill="#48A1B5"/>
<path d="M430.227 166.707C425.747 162.972 419.773 160.733 413.8 162.227L286.868 181.639C276.415 183.134 268.946 192.093 268.946 202.546V304.838H262.972C236.836 304.838 215.931 323.505 215.931 345.906C215.931 368.307 236.838 386.974 262.972 386.974C286.118 386.974 305.535 372.042 309.264 352.625C310.009 350.385 310.759 348.146 310.759 345.906V220.469L395.879 207.031V281.698H390.65C364.514 281.698 343.609 300.365 343.609 322.766C343.609 333.964 348.838 345.167 358.541 352.63C367.499 360.099 378.702 363.828 390.645 363.828C416.781 363.828 437.686 345.161 437.686 322.76V320.52V182.387C437.691 176.413 435.452 171.189 430.228 166.71L430.227 166.707Z" fill="black"/>
</svg>
