<svg width="184" height="92" viewBox="0 0 184 92" fill="none" xmlns="http://www.w3.org/2000/svg">
<path fill-rule="evenodd" clip-rule="evenodd" d="M98.0785 78.9479L137.59 35L92.5571 73.1489C91.3914 72.678 90.1103 72.4178 88.7658 72.4178C83.3723 72.4178 79 76.606 79 81.7725C79 86.939 83.3723 91.1273 88.7658 91.1273C94.1593 91.1273 98.5315 86.939 98.5315 81.7725C98.5315 80.7881 98.3728 79.8391 98.0785 78.9479Z" fill="#6FCF97"/>
<path d="M174.8 92C179.881 92 184.048 87.8709 183.54 82.8152C182.644 73.8844 180.444 65.116 176.997 56.7931C172.373 45.6312 165.597 35.4892 157.054 26.9462C148.511 18.4032 138.369 11.6265 127.207 7.00308C116.045 2.37965 104.082 -5.28104e-07 92 0C79.9184 5.28104e-07 67.9551 2.37965 56.7931 7.00308C45.6312 11.6265 35.4892 18.4032 26.9462 26.9462C18.4032 35.4892 11.6265 45.6312 7.00308 56.7931C3.55563 65.116 1.3557 73.8845 0.459618 82.8153C-0.0476438 87.8709 4.11898 92 9.2 92C14.281 92 18.3408 87.8652 18.9743 82.8239C19.7926 76.3115 21.4801 69.9239 24.0025 63.8345C27.7012 54.9049 33.1225 46.7913 39.9569 39.9569C46.7913 33.1225 54.9049 27.7012 63.8345 24.0025C72.7641 20.3037 82.3347 18.4 92 18.4C101.665 18.4 111.236 20.3037 120.165 24.0025C129.095 27.7012 137.209 33.1225 144.043 39.9569C150.877 46.7913 156.299 54.9049 159.998 63.8345C162.52 69.9239 164.207 76.3115 165.026 82.8239C165.659 87.8652 169.719 92 174.8 92Z" fill="#E8E8E8"/>
<path d="M150.499 33.4493C154.09 29.8574 154.116 23.9939 150.185 20.7783C138.556 11.2663 124.735 4.71754 109.911 1.76779C92.0705 -1.78204 73.5787 0.0398646 56.7737 7.00313C39.9686 13.9664 25.6051 25.7583 15.4995 40.8876C7.10216 53.4594 1.95825 67.8664 0.459111 82.8181C-0.0476222 87.8721 4.11757 92 9.19685 92C14.2761 92 18.3345 87.8665 18.9673 82.8268C20.3871 71.5206 24.4182 60.6542 30.7933 51.1101C38.8778 39.0066 50.3686 29.5731 63.8126 24.0025C77.2566 18.4319 92.0501 16.9744 106.322 19.8142C117.574 22.0532 128.104 26.884 137.099 33.8723C141.111 36.9899 146.907 37.043 150.499 33.4493Z" fill="#6FCF97"/>
</svg>
