<svg width="184" height="92" viewBox="0 0 184 92" fill="none" xmlns="http://www.w3.org/2000/svg">
<path fill-rule="evenodd" clip-rule="evenodd" d="M86.5111 78.9479L47 35L92.0325 73.1489C93.1982 72.678 94.4793 72.4178 95.8238 72.4178C101.217 72.4178 105.59 76.606 105.59 81.7725C105.59 86.939 101.217 91.1273 95.8238 91.1273C90.4303 91.1273 86.0581 86.939 86.0581 81.7725C86.0581 80.7881 86.2168 79.8391 86.5111 78.9479Z" fill="#EB5757"/>
<mask id="mask0_28_1651" style="mask-type:alpha" maskUnits="userSpaceOnUse" x="0" y="0" width="184" height="92">
<path d="M174.8 92C179.881 92 184.048 87.8709 183.54 82.8152C182.644 73.8844 180.444 65.116 176.997 56.7931C172.373 45.6312 165.597 35.4892 157.054 26.9462C148.511 18.4032 138.369 11.6265 127.207 7.00308C116.045 2.37965 104.082 -5.28104e-07 92 0C79.9184 5.28104e-07 67.9551 2.37965 56.7931 7.00308C45.6312 11.6265 35.4892 18.4032 26.9462 26.9462C18.4032 35.4892 11.6265 45.6312 7.00308 56.7931C3.55563 65.116 1.3557 73.8845 0.459618 82.8153C-0.0476438 87.8709 4.11898 92 9.2 92C14.281 92 18.3408 87.8652 18.9743 82.8239C19.7926 76.3115 21.4801 69.9239 24.0025 63.8345C27.7012 54.9049 33.1225 46.7913 39.9569 39.9569C46.7913 33.1225 54.9049 27.7012 63.8345 24.0025C72.7641 20.3037 82.3347 18.4 92 18.4C101.665 18.4 111.236 20.3037 120.165 24.0025C129.095 27.7012 137.209 33.1225 144.043 39.9569C150.877 46.7913 156.299 54.9049 159.998 63.8345C162.52 69.9239 164.207 76.3115 165.026 82.8239C165.659 87.8652 169.719 92 174.8 92Z" fill="#E8E8E8"/>
</mask>
<g mask="url(#mask0_28_1651)">
<path d="M174.8 92C179.881 92 184.048 87.8709 183.54 82.8152C182.644 73.8844 180.444 65.116 176.997 56.7931C172.373 45.6312 165.597 35.4892 157.054 26.9462C148.511 18.4032 138.369 11.6265 127.207 7.00308C116.045 2.37965 104.082 -5.28104e-07 92 0C79.9184 5.28104e-07 67.9551 2.37965 56.7931 7.00308C45.6312 11.6265 35.4892 18.4032 26.9462 26.9462C18.4032 35.4892 11.6265 45.6312 7.00308 56.7931C3.55563 65.116 1.3557 73.8845 0.459618 82.8153C-0.0476438 87.8709 4.11898 92 9.2 92C14.281 92 18.3408 87.8652 18.9743 82.8239C19.7926 76.3115 21.4801 69.9239 24.0025 63.8345C27.7012 54.9049 33.1225 46.7913 39.9569 39.9569C46.7913 33.1225 54.9049 27.7012 63.8345 24.0025C72.7641 20.3037 82.3347 18.4 92 18.4C101.665 18.4 111.236 20.3037 120.165 24.0025C129.095 27.7012 137.209 33.1225 144.043 39.9569C150.877 46.7913 156.299 54.9049 159.998 63.8345C162.52 69.9239 164.207 76.3115 165.026 82.8239C165.659 87.8652 169.719 92 174.8 92Z" fill="#E8E8E8"/>
<path d="M44.9734 24.0496C41.8712 19.8283 35.9134 18.851 31.9758 22.3062C20.2125 32.6283 11.1668 45.6923 5.69492 60.3806C-0.874683 78.0156 -1.99751 97.2 2.46844 115.508C6.93438 133.816 16.7885 150.425 30.7847 163.234C42.4434 173.905 56.54 181.54 71.7946 185.523C76.8767 186.85 81.7688 183.268 82.5945 178.081C83.4202 172.894 79.8596 168.076 74.8114 166.626C63.3125 163.321 52.6956 157.405 43.8378 149.298C32.6409 139.05 24.7576 125.763 21.1848 111.117C17.612 96.4703 18.5103 81.1227 23.766 67.0147C27.8952 55.9305 34.5684 46.0026 43.2106 37.9812C47.1184 34.3541 48.1308 28.3459 44.9734 24.0496Z" fill="#EB5757"/>
</g>
</svg>
