<svg width="184" height="92" viewBox="0 0 184 92" fill="none" xmlns="http://www.w3.org/2000/svg">
<path fill-rule="evenodd" clip-rule="evenodd" d="M97.7427 73.5862L94.0975 23.172L90.8954 73.5325C86.876 74.9334 84.1336 78.7601 84.4476 83.039C84.8257 88.1916 89.4927 92.0487 94.8717 91.654C100.251 91.2593 104.305 86.7622 103.927 81.6096C103.654 77.8879 101.143 74.8421 97.7427 73.5862Z" fill="#F2C94C"/>
<mask id="mask0_28_1653" style="mask-type:alpha" maskUnits="userSpaceOnUse" x="0" y="0" width="184" height="92">
<path d="M174.8 92C179.881 92 184.048 87.8709 183.54 82.8152C182.644 73.8844 180.444 65.116 176.997 56.7931C172.373 45.6312 165.597 35.4892 157.054 26.9462C148.511 18.4032 138.369 11.6265 127.207 7.00308C116.045 2.37965 104.082 -5.28104e-07 92 0C79.9184 5.28104e-07 67.9551 2.37965 56.7931 7.00308C45.6312 11.6265 35.4892 18.4032 26.9462 26.9462C18.4032 35.4892 11.6265 45.6312 7.00308 56.7931C3.55563 65.116 1.3557 73.8845 0.459618 82.8153C-0.0476438 87.8709 4.11898 92 9.2 92C14.281 92 18.3408 87.8652 18.9743 82.8239C19.7926 76.3115 21.4801 69.9239 24.0025 63.8345C27.7012 54.9049 33.1225 46.7913 39.9569 39.9569C46.7913 33.1225 54.9049 27.7012 63.8345 24.0025C72.7641 20.3037 82.3347 18.4 92 18.4C101.665 18.4 111.236 20.3037 120.165 24.0025C129.095 27.7012 137.209 33.1225 144.043 39.9569C150.877 46.7913 156.299 54.9049 159.998 63.8345C162.52 69.9239 164.207 76.3115 165.026 82.8239C165.659 87.8652 169.719 92 174.8 92Z" fill="#E8E8E8"/>
</mask>
<g mask="url(#mask0_28_1653)">
<path d="M174.8 92C179.881 92 184.048 87.8709 183.54 82.8152C182.644 73.8844 180.444 65.116 176.997 56.7931C172.373 45.6312 165.597 35.4892 157.054 26.9462C148.511 18.4032 138.369 11.6265 127.207 7.00308C116.045 2.37965 104.082 -5.28104e-07 92 0C79.9184 5.28104e-07 67.9551 2.37965 56.7931 7.00308C45.6312 11.6265 35.4892 18.4032 26.9462 26.9462C18.4032 35.4892 11.6265 45.6312 7.00308 56.7931C3.55563 65.116 1.3557 73.8845 0.459618 82.8153C-0.0476438 87.8709 4.11898 92 9.2 92C14.281 92 18.3408 87.8652 18.9743 82.8239C19.7926 76.3115 21.4801 69.9239 24.0025 63.8345C27.7012 54.9049 33.1225 46.7913 39.9569 39.9569C46.7913 33.1225 54.9049 27.7012 63.8345 24.0025C72.7641 20.3037 82.3347 18.4 92 18.4C101.665 18.4 111.236 20.3037 120.165 24.0025C129.095 27.7012 137.209 33.1225 144.043 39.9569C150.877 46.7913 156.299 54.9049 159.998 63.8345C162.52 69.9239 164.207 76.3115 165.026 82.8239C165.659 87.8652 169.719 92 174.8 92Z" fill="#E8E8E8"/>
<path d="M97.8643 9.58756C98.241 4.52263 94.4346 0.0625647 89.3573 0.191501C74.3385 0.57289 59.5925 4.63019 46.4349 12.0692C30.6005 21.0216 17.7779 34.4695 9.58852 50.7124C1.39915 66.9552 -1.78918 85.2635 0.426736 103.322C2.26806 118.328 7.77222 132.601 16.3935 144.909C19.3077 149.069 25.1575 149.478 29.0062 146.164C32.8549 142.849 33.2325 137.069 30.4232 132.837C24.1207 123.344 20.084 112.479 18.6861 101.087C16.9134 86.6405 19.4641 71.9939 26.0156 58.9996C32.5671 46.0053 42.8252 35.247 55.4926 28.085C65.4797 22.4386 76.6107 19.2275 87.9867 18.6529C93.0616 18.3965 97.4874 14.6549 97.8643 9.58756Z" fill="#F2C94C"/>
</g>
</svg>
